<svg width="80" height="59" viewBox="0 0 80 59" fill="none" xmlns="http://www.w3.org/2000/svg">
<path d="M61.8466 0.454102C55.6381 0.454102 51.8622 1.65223 49.6838 2.66882C46.8882 1.28916 43.6932 0.454102 40.0625 0.454102C36.4318 0.454102 33.2368 1.28916 30.4412 2.66882C28.2628 1.65223 24.4869 0.454102 18.2784 0.454102C7.38636 0.454102 0.125 29.4996 0.125 36.7609C0.125 39.7744 4.9175 42.5337 11.5253 43.6592C13.849 51.7919 24.8136 58.0004 38.2472 58.545V43.0057C36.1051 41.6623 32.8011 39.2298 32.8011 36.7609C32.8011 33.1302 40.0625 33.1302 40.0625 33.1302C40.0625 33.1302 47.3239 33.1302 47.3239 36.7609C47.3239 39.2298 44.0199 41.6623 41.8778 43.0057V58.545C55.3114 58.0004 66.276 51.7919 68.5997 43.6592C75.2075 42.5337 80 39.7744 80 36.7609C80 29.4996 72.7386 0.454102 61.8466 0.454102ZM11.5616 36.2889C9.74631 35.8532 8.33034 35.345 7.38636 34.9456C8.29403 24.8886 15.3739 9.16774 18.4599 7.71547C20.4205 7.71547 21.9091 7.93331 23.2524 8.11484C15.628 16.5017 12.6145 29.6448 11.5616 36.2889ZM29.1705 29.4996C28.2075 29.4996 27.2841 29.117 26.6032 28.4362C25.9223 27.7553 25.5398 26.8318 25.5398 25.8689C25.5398 23.9083 27.1736 22.2382 29.1705 22.2382C30.1334 22.2382 31.0568 22.6207 31.7377 23.3016C32.4186 23.9825 32.8011 24.906 32.8011 25.8689C32.8011 27.9021 31.1673 29.4996 29.1705 29.4996ZM50.9545 29.4996C49.9916 29.4996 49.0681 29.117 48.3873 28.4362C47.7064 27.7553 47.3239 26.8318 47.3239 25.8689C47.3239 23.9083 48.9577 22.2382 50.9545 22.2382C51.9175 22.2382 52.8409 22.6207 53.5218 23.3016C54.2027 23.9825 54.5852 24.906 54.5852 25.8689C54.5852 27.9021 52.9514 29.4996 50.9545 29.4996ZM68.5634 36.2889C67.5105 29.6448 64.497 16.5017 56.8726 8.11484C58.2159 7.93331 59.7045 7.71547 61.6651 7.71547C64.7511 9.16774 71.831 24.8886 72.7386 34.9456C71.831 35.345 70.415 35.8532 68.5634 36.2889Z" fill="#276735"/>
</svg>
